<?xml version="1.0" encoding="UTF-8" standalone="no"?>
<!-- Created with Inkscape (http://www.inkscape.org/) -->

<svg
   width="512"
   height="512"
   viewBox="0 0 135.46666 135.46666"
   version="1.1"
   id="svg5"
   xml:space="preserve"
   sodipodi:docname="cozinha-icon.svg"
   xmlns:inkscape="http://www.inkscape.org/namespaces/inkscape"
   xmlns:sodipodi="http://sodipodi.sourceforge.net/DTD/sodipodi-0.dtd"
   xmlns="http://www.w3.org/2000/svg"
   xmlns:svg="http://www.w3.org/2000/svg"><sodipodi:namedview
     id="namedview6"
     pagecolor="#ffffff"
     bordercolor="#000000"
     borderopacity="0.25"
     inkscape:showpageshadow="2"
     inkscape:pageopacity="0.0"
     inkscape:pagecheckerboard="0"
     inkscape:deskcolor="#d1d1d1"
     showgrid="false" /><defs
     id="defs2" /><g
     id="layer1"
     style="fill:#000000"><path
       style="fill:#000000;fill-opacity:1;stroke:none;stroke-width:0.126717"
       d="m 116.6996,8.166951 c -3.07797,0.3904173 -2.40764,3.63375 -2.40764,6.028587 0,6.544699 -0.60191,12.986888 -0.76157,19.514482 -0.58796,23.990913 -0.88957,48.034024 0.75017,71.97553 0.37634,5.49042 0.0671,11.43625 1.8298,16.7267 0.73368,2.19728 2.4051,4.92678 5.15106,4.66574 4.41737,-0.41944 4.88369,-4.58464 5.50714,-8.08711 1.38123,-7.74636 0.99474,-15.62717 0.45999,-23.442734 -0.29398,-4.29725 -0.0811,-8.621352 -0.26992,-12.925197 -0.0671,-1.524788 -0.82493,-3.96333 -0.17233,-5.419947 0.2585,-0.575174 1.29504,-0.560855 1.82474,-0.662483 1.68153,-0.322876 4.63151,-0.01095 5.14093,-2.154194 0.9301,-3.909998 0.7679,-8.29341 0.81478,-12.291597 0.0609,-5.065913 0.14446,-10.137647 0.0203,-15.206097 -0.12417,-5.082381 -0.29525,-10.138915 -0.64245,-15.206097 -0.24203,-3.52755 -0.47138,-6.845903 -1.53582,-10.264105 -1.85514,-5.965227 -6.58677,-12.0424655 -13.0481,-12.9631956 -0.88321,-0.1259562 -1.76009,-0.4025805 -2.66106,-0.2882824 m 0.38015,2.86065 c 1.78165,0.429439 3.16286,0.893863 4.68854,1.953217 1.39896,0.971802 2.84608,1.945236 3.94852,3.26551 2.9031,3.479914 4.11832,8.093315 4.5631,12.521713 0.60065,5.981313 0.48026,11.98747 0.74383,17.993873 0.1508,3.457364 0.12165,6.924101 0.12165,10.390836 0,3.596616 -0.37889,7.188678 -0.38015,10.770991 0,1.35321 -0.09,2.709343 -0.21543,4.054953 -0.0392,0.415001 0.18629,0.968882 0.0102,1.353598 -0.23063,0.502942 -1.36602,0.395477 -1.8222,0.44186 -1.3052,0.13254 -3.51515,0.309191 -4.20068,1.628196 -0.86802,1.669251 -0.62345,4.389744 -0.49927,6.206876 0.17866,2.605937 0.13812,5.241913 0.13812,7.856479 0,8.455346 -0.40549,16.897027 -0.50687,25.343507 -0.0241,2.07309 -0.27879,4.14999 -0.5132,6.20914 -0.0938,0.82114 -0.25724,1.94892 -1.04923,2.4013 -0.91362,0.52208 -2.4938,0.21922 -2.99687,-0.75903 -0.50433,-0.98207 -0.42197,-2.94111 -0.498,-4.04989 -0.47012,-6.82627 -1.27858,-13.67244 -1.27858,-20.528239 0,-7.141801 -0.6754,-14.274854 -0.7603,-21.415254 -0.1546,-13.021741 0.38015,-26.033846 0.38015,-39.028974 0,-6.969463 -0.68048,-14.110496 -0.0215,-21.035097 0.16981,-1.785959 -0.35607,-3.850183 0.14826,-5.575565 M 25.463009,30.6688 c -0.694034,0 -2.446409,0.315145 -2.96481,-0.20313 -0.571879,-0.572001 -0.203129,-2.699077 -0.203129,-3.471672 0,-3.299222 -0.253436,-6.580947 -0.253436,-9.883966 0,-1.417844 0.695552,-5.190343 -1.39389,-5.367493 -2.49139,-0.211241 -1.556343,3.607133 -1.685342,4.987343 -0.302222,3.232179 0.03803,6.614143 0.03803,9.88396 0,0.919718 0.387379,2.985588 -0.130265,3.761226 -0.25825,0.387121 -0.864464,0.293608 -1.263625,0.293732 -1.176698,5.29e-4 -3.209755,0.394983 -4.289641,-0.07641 -0.859017,-0.375088 -0.328577,-3.447481 -0.236076,-4.231984 0.442371,-3.749067 0.376354,-7.754354 0.468857,-11.531293 0.02673,-1.089767 -0.04791,-3.307702 -1.645301,-3.257012 -0.803892,0.02544 -1.140203,0.851415 -1.419866,1.482972 -0.6672961,1.50743 -0.244821,3.927227 -0.357469,5.575566 -0.2035086,2.980645 -0.117722,6.032007 -0.467592,8.996938 -0.082869,0.703285 0.2892985,2.309425 -0.2392411,2.83809 -0.3275646,0.327442 -1.0252687,0.20313 -1.4441999,0.20313 H 4.3012079 c 0,-4.958199 1.2452529,-9.861528 1.1772064,-14.82594 -0.020644,-1.510095 0.1377405,-4.699821 -2.1909462,-4.279503 -1.8333468,0.331115 -1.3932568,4.284314 -1.393894,5.67339 -0.00284,6.024022 -1.41593862,11.954655 -1.00233333,17.993886 0.26496533,3.870201 1.72766743,7.536141 4.57196813,10.168568 1.2750265,1.180117 2.7514119,2.062959 4.1582325,3.065173 0.5812506,0.414103 1.3864176,0.964946 1.5037546,1.718912 0.711013,4.570949 -0.331492,9.377095 -0.592275,13.938928 -0.6633691,11.604146 -2.4301884,23.141009 -2.4301884,34.720594 0,6.503135 0.1178465,13.364885 2.8753454,19.387775 0.881824,1.92609 2.463258,5.31706 4.981133,5.31833 2.512685,0.002 3.847272,-3.49613 4.585402,-5.44506 0.78248,-2.06548 0.797432,-4.2957 1.003349,-6.46259 0.05905,-0.62053 0.421714,-1.15337 0.480513,-1.77403 0.353035,-3.72981 0.01316,-7.65653 0.01316,-11.404595 0,-12.528301 -1.554311,-24.97905 -1.647703,-37.508361 -0.01849,-2.478347 -0.08719,-5.004585 -0.264462,-7.476335 -0.06424,-0.896651 -0.488751,-1.890112 -0.340233,-2.787784 0.520551,-3.148291 4.663329,-5.362809 6.760501,-7.405248 1.94752,-1.896823 2.719864,-4.886595 2.836571,-7.547414 0.265094,-6.045051 -1.252605,-11.874947 -1.26223,-17.867159 -0.0023,-1.351313 0.472652,-5.364706 -1.267178,-5.673267 -2.264693,-0.401567 -2.051176,2.47162 -1.979958,3.899224 0.241903,4.847322 0.586069,9.716187 0.586069,14.572506 m 40.042724,10.644264 c -0.880182,-2.07867 -3.734236,-3.934445 -5.829002,-4.593123 -0.944177,-0.296897 -3.030959,-0.114556 -2.711378,1.298468 0.528409,2.336041 3.991096,3.262351 5.414389,5.068704 2.093622,2.657139 3.292876,5.949505 4.350968,9.123659 0.473292,1.419999 1.090783,2.955047 1.309371,4.435107 -3.404896,-0.02808 -6.664325,-1.679133 -9.757248,-2.931736 -4.672958,-1.892393 -11.0191,-3.47054 -15.712966,-0.833798 -3.460659,1.943973 -5.720917,5.513736 -7.696062,8.834238 -1.135769,1.909373 -2.295991,3.844601 -3.020692,5.955713 -0.270032,0.786921 -0.263317,1.609561 -0.470627,2.407631 -2.682988,10.325324 -2.177134,20.7894 1.046308,30.919076 1.346245,4.23033 3.084174,8.50059 5.818484,12.03815 2.752304,3.56077 6.510743,5.99121 10.368786,8.17834 0.936058,0.53096 1.712708,1.22285 2.697308,1.69423 10.430623,4.98379 22.817004,5.72383 33.833574,2.36327 5.605975,-1.70941 9.321339,-5.38801 13.094465,-9.67994 5.420326,-6.16619 8.296696,-13.33941 9.994706,-21.310082 0.63233,-2.965958 1.29124,-5.957376 1.36602,-8.996947 0.1039,-4.276333 -0.62979,-8.63921 -1.56116,-12.798467 -1.53201,-6.835005 -5.12305,-13.02351 -10.548718,-17.48701 -2.342373,-1.926985 -5.350255,-3.839659 -8.417083,-4.286848 -3.63527,-0.530183 -6.974011,1.272629 -10.264114,2.60037 -2.460848,0.993084 -5.047788,1.781774 -7.476325,2.826938 -0.0095,-3.460271 -1.686108,-6.844383 -2.914502,-10.010682 3.120787,0.715455 5.999815,2.133543 9.250376,2.27598 3.784925,0.16574 8.853111,-1.433561 11.646223,-4.070171 2.983558,-2.816423 5.135232,-7.040287 7.288403,-10.497396 1.525671,-2.449831 3.099626,-4.887242 4.07055,-7.603045 0.31958,-0.893995 1.04452,-1.774937 0.7627,-2.785889 -0.53208,-1.908869 -3.447975,-2.147607 -5.013701,-2.355804 -5.026373,-0.668053 -11.122739,-0.136095 -15.586238,2.38292 -1.793689,1.012352 -3.680384,2.130375 -5.147392,3.595104 -1.673311,1.670645 -2.902331,3.979182 -4.084992,6.006406 -1.159976,1.988455 -2.308918,3.971335 -3.673532,5.828501 -0.633211,0.861936 -1.444208,1.949671 -2.426899,2.408133 M 97.818684,24.839799 c -1.148952,2.581615 -2.995852,5.071865 -4.494282,7.476325 -1.892025,3.036024 -3.812172,7.090227 -6.535082,9.4625 -1.930156,1.681545 -5.201623,2.819971 -7.724814,3.06099 -3.068089,0.293224 -6.678274,-1.050995 -9.503812,-2.132654 1.571551,-2.376332 3.239402,-4.643691 4.713888,-7.096181 1.206466,-2.006694 2.2875,-4.355153 3.958522,-6.026806 4.920569,-4.922468 13.016043,-5.963828 19.58558,-4.744174 m -72.228958,9.250374 c 0.346952,2.016328 0.445033,4.39494 -0.841024,6.209156 -2.124548,2.996994 -7.17677,5.180206 -7.510548,9.250376 -0.347078,4.234133 0.009,8.675326 0.113033,12.925178 0.317049,12.937857 1.522511,25.823632 1.522511,38.775557 0,2.7096 0.236199,5.53997 -0.02154,8.23663 -0.201482,2.10985 -0.715448,4.24251 -1.066453,6.33588 -0.194514,1.15946 -0.414621,4.45665 -2.207039,4.28431 -1.489183,-0.14319 -2.218821,-3.00574 -2.617097,-4.1576 -1.228274,-3.55062 -1.700802,-7.17499 -1.955756,-10.89771 -0.07805,-1.14058 -0.412213,-2.27407 -0.363807,-3.42136 0.404225,-9.583146 1.385019,-19.215573 2.29751,-28.764871 C 13.632028,65.617977 14.635884,58.32045 13.768882,51.070311 13.602631,49.680475 13.292934,47.866135 12.324811,46.788528 10.76479,45.051993 8.2569286,44.352636 6.6582587,42.558191 4.5987208,40.24649 4.3011893,37.053331 4.3011893,34.090173 H 25.589723 m 61.584705,20.059499 c 3.148171,-0.309692 6.615543,2.262032 8.870221,4.13327 7.031421,5.835599 9.886471,14.607109 10.506141,23.453 0.70835,10.107226 -2.96784,20.889248 -8.587638,29.156298 -0.574917,0.84533 -0.858636,1.80332 -1.465864,2.64979 -1.815097,2.52801 -4.376566,4.76965 -7.041949,6.38402 -1.179482,0.71595 -2.294859,0.85788 -3.548091,1.29379 -3.861086,1.3432 -7.974461,2.17828 -12.03816,2.56476 -4.477185,0.42576 -8.846656,-0.20528 -13.178618,-1.31152 -1.321917,-0.33834 -2.611015,-0.29905 -3.928239,-0.75904 -2.574268,-0.89842 -5.142957,-2.09465 -7.34949,-3.70902 -0.573649,-0.4207 -0.961148,-1.02134 -1.522635,-1.45218 -2.199816,-1.68788 -4.376444,-3.27311 -6.171141,-5.41857 -2.69452,-3.22179 -4.357305,-7.23582 -5.765898,-11.151015 -4.772434,-13.265423 -4.327022,-31.155519 5.887672,-41.920169 0.704806,-0.742561 1.498688,-1.464348 2.376461,-1.993774 2.47175,-1.490953 5.666677,-1.21167 8.365256,-0.605081 5.504478,1.237279 10.395265,4.979757 16.217936,4.724798 4.37302,-0.191472 8.697128,-2.43589 12.671749,-4.103742 1.784556,-0.748903 3.755529,-1.744142 5.702287,-1.935615 M 40.288956,86.424476 c 0.400549,-3.102169 -0.383956,-6.030472 -0.248494,-9.12365 0.133684,-3.052748 0.799332,-6.550535 2.313859,-9.239095 0.984469,-1.747692 2.44641,-3.157044 3.705221,-4.699321 0.747249,-0.915401 1.932314,-2.978491 -0.0683,-3.144618 -1.993144,-0.165362 -3.77593,2.059665 -4.907135,3.397551 -3.752864,4.438277 -4.545104,10.369164 -4.469452,15.966396 0.02949,2.184488 0.855339,6.774565 3.674301,6.842737 z"
       id="path860" /></g></svg>
